# File produced by Open Asset Import Library (http://www.assimp.sf.net)
# (assimp v3.0.1262)

mtllib finger_link_0.stl.obj.mtl

# 60 vertex positions
v  -0.00998465 -0.00934089 0.015
v  -0.00998465 0.00823319 0.015
v  -0.00998465 -0.00934089 -0.015
v  -0.00998465 -0.00934089 -0.015
v  -0.00998465 0.00823319 0.015
v  -0.00998465 0.00823319 -0.015
v  0.039084 -0.0126947 0.015
v  -0.00998465 -0.00934089 0.015
v  0.039084 -0.0126947 -0.015
v  0.039084 -0.0126947 -0.015
v  -0.00998465 -0.00934089 0.015
v  -0.00998465 -0.00934089 -0.015
v  0.0670063 0.0688132 0.015
v  0.039084 -0.0126947 0.015
v  0.0670063 0.0688132 -0.015
v  0.0670063 0.0688132 -0.015
v  0.039084 -0.0126947 0.015
v  0.039084 -0.0126947 -0.015
v  0.0480857 0.0752948 0.015
v  0.0670063 0.0688132 0.015
v  0.0480857 0.0752948 -0.015
v  0.0480857 0.0752948 -0.015
v  0.0670063 0.0688132 0.015
v  0.0670063 0.0688132 -0.015
v  0.0244227 0.0149774 0.015
v  0.0480857 0.0752948 0.015
v  0.0244227 0.0149774 -0.015
v  0.0244227 0.0149774 -0.015
v  0.0480857 0.0752948 0.015
v  0.0480857 0.0752948 -0.015
v  -0.00998465 0.00823319 0.015
v  0.0244227 0.0149774 0.015
v  -0.00998465 0.00823319 -0.015
v  -0.00998465 0.00823319 -0.015
v  0.0244227 0.0149774 0.015
v  0.0244227 0.0149774 -0.015
v  -0.00998465 0.00823319 0.015
v  -0.00998465 -0.00934089 0.015
v  0.0244227 0.0149774 0.015
v  0.0244227 0.0149774 0.015
v  -0.00998465 -0.00934089 0.015
v  0.039084 -0.0126947 0.015
v  0.0244227 0.0149774 0.015
v  0.039084 -0.0126947 0.015
v  0.0480857 0.0752948 0.015
v  0.0480857 0.0752948 0.015
v  0.039084 -0.0126947 0.015
v  0.0670063 0.0688132 0.015
v  0.0480857 0.0752948 -0.015
v  0.0670063 0.0688132 -0.015
v  0.0244227 0.0149774 -0.015
v  0.0244227 0.0149774 -0.015
v  0.0670063 0.0688132 -0.015
v  0.039084 -0.0126947 -0.015
v  0.0244227 0.0149774 -0.015
v  0.039084 -0.0126947 -0.015
v  -0.00998465 0.00823319 -0.015
v  -0.00998465 0.00823319 -0.015
v  0.039084 -0.0126947 -0.015
v  -0.00998465 -0.00934089 -0.015

# 0 UV coordinates

# 60 vertex normals
vn -1 0 0
vn -1 0 0
vn -1 0 0
vn -1 0 0
vn -1 0 0
vn -1 0 0
vn -0.0681894 -0.997672 -0
vn -0.0681894 -0.997672 -0
vn -0.0681894 -0.997672 -0
vn -0.0681894 -0.997672 -0
vn -0.0681894 -0.997672 -0
vn -0.0681894 -0.997672 0
vn 0.946029 -0.324083 0
vn 0.946029 -0.324083 0
vn 0.946029 -0.324083 0
vn 0.946029 -0.324083 0
vn 0.946029 -0.324083 0
vn 0.946029 -0.324083 0
vn 0.324082 0.946029 0
vn 0.324082 0.946029 0
vn 0.324082 0.946029 0
vn 0.324082 0.946029 0
vn 0.324082 0.946029 0
vn 0.324082 0.946029 0
vn -0.930925 0.365209 0
vn -0.930925 0.365209 0
vn -0.930925 0.365209 0
vn -0.930925 0.365209 0
vn -0.930925 0.365209 0
vn -0.930925 0.365209 0
vn -0.192351 0.981326 0
vn -0.192351 0.981326 0
vn -0.192351 0.981326 0
vn -0.192351 0.981326 0
vn -0.192351 0.981326 0
vn -0.192351 0.981326 0
vn -0 0 1
vn -0 0 1
vn -0 0 1
vn -0 0 1
vn -0 0 1
vn 0 0 1
vn -0 0 1
vn 0 0 1
vn -0 0 1
vn -0 0 1
vn 0 0 1
vn 0 0 1
vn 0 -0 -1
vn 0 -0 -1
vn 0 -0 -1
vn 0 -0 -1
vn 0 -0 -1
vn 0 0 -1
vn 0 -0 -1
vn 0 0 -1
vn 0 -0 -1
vn 0 -0 -1
vn 0 0 -1
vn 0 0 -1

# Mesh '<STL_BINARY>' with 20 faces
g <STL_BINARY>
usemtl DefaultMaterial
f  1//1 2//2 3//3
f  4//4 5//5 6//6
f  7//7 8//8 9//9
f  10//10 11//11 12//12
f  13//13 14//14 15//15
f  16//16 17//17 18//18
f  19//19 20//20 21//21
f  22//22 23//23 24//24
f  25//25 26//26 27//27
f  28//28 29//29 30//30
f  31//31 32//32 33//33
f  34//34 35//35 36//36
f  37//37 38//38 39//39
f  40//40 41//41 42//42
f  43//43 44//44 45//45
f  46//46 47//47 48//48
f  49//49 50//50 51//51
f  52//52 53//53 54//54
f  55//55 56//56 57//57
f  58//58 59//59 60//60

