####
#
# OBJ File Generated by Meshlab
#
####
# Object Dish.obj
#
# Vertices: 52
# Faces: 100
#
####
vn 0.070303 -0.996427 0.046808
v 6.150351 0.200695 2.205052
vn 0.019542 -0.998719 -0.046684
v 1.530145 0.039651 -6.176767
vn -0.053851 -0.997983 -0.033621
v -4.011140 0.068505 -4.676960
vn 0.141764 -0.986924 0.076712
v 8.549404 0.630966 4.525084
vn 0.115918 -0.992751 -0.031746
v 8.269596 0.473027 -4.454986
vn 0.044869 -0.992368 -0.114861
v 2.932503 0.397089 -9.079918
vn -0.148180 -0.988610 -0.026321
v -9.236453 0.518459 -1.559376
vn -0.105769 -0.993047 0.051676
v -6.319007 0.181092 1.157858
vn -0.056637 -0.990458 0.125635
v -4.278023 0.703932 8.538475
vn 0.046993 -0.990594 0.128510
v 3.252020 0.920629 10.131996
vn -0.048123 -0.990308 -0.130286
v -3.752199 0.425856 -8.813279
vn -0.110323 -0.990193 -0.085712
v -7.265007 0.482537 -6.199271
vn -0.097146 -0.993000 0.067180
v -8.982581 0.850510 5.396957
vn -0.503761 0.089361 0.859209
v -5.222030 1.072826 10.684399
vn 0.112070 -0.990243 0.082816
v 9.451800 0.857122 4.963722
vn -0.044835 -0.991558 -0.121670
v -3.766069 0.584165 -9.735732
vn -0.130065 -0.991412 0.013642
v -10.417654 0.727232 -1.583271
vn 0.129569 -0.991554 0.005667
v 10.325152 0.731886 -1.395514
vn -0.150455 -0.981705 -0.116700
v -6.975976 0.706062 -10.006752
vn -0.172272 -0.981116 0.087940
v -9.553050 0.994965 7.618250
vn 0.510774 0.075107 0.856428
v 6.510974 1.064007 10.461795
vn 0.959161 0.079600 0.271431
v 11.770213 0.962224 3.739903
vn 0.162414 -0.977129 -0.137258
v 8.470753 0.700495 -7.844601
vn 0.022351 -0.990565 -0.135206
v 2.612818 0.602845 -10.506025
vn -0.010302 -0.997224 0.073739
v -1.943849 0.256414 6.279941
vn 0.024716 0.999332 -0.026922
v -11.733206 0.983105 2.769858
vn 0.005434 -0.928233 0.371960
v 0.089472 1.055062 11.711697
vn 0.048357 0.998491 -0.026017
v -6.165142 0.264909 1.350460
vn 0.066562 0.992135 -0.106010
v -3.901778 0.371126 5.363748
vn -0.018989 0.996108 -0.086069
v 1.398486 0.346388 6.160420
vn -0.076633 0.996634 -0.029118
v 6.459646 0.259565 1.275450
vn -0.042142 0.998407 0.037510
v 4.424073 0.164544 -4.227305
vn 0.008015 0.997891 0.064421
v -1.174008 0.125219 -6.449345
vn 0.114311 0.992109 -0.051498
v -9.991474 0.889804 3.132049
vn -0.010238 0.985947 -0.166745
v 0.493313 0.826326 9.504876
vn -0.120513 0.984569 -0.126889
v 6.665094 0.711697 6.329043
vn -0.050692 0.994754 0.088848
v 2.996368 0.652153 -9.771536
vn -0.126041 0.989934 0.064372
v 7.367469 0.460414 -5.078321
vn 0.026325 0.994699 0.099405
v -1.530788 0.490932 -9.198332
vn 0.140532 0.989810 0.022951
v -8.368665 0.510805 -2.475046
vn 0.045607 0.995755 -0.079956
v -6.936268 0.981809 7.815758
vn -0.061339 0.997765 0.026503
v 8.330491 0.738839 -6.343247
vn 0.013593 0.997689 -0.066569
v 4.797282 0.743626 -10.928351
vn 0.237477 0.074958 -0.968497
v -0.100052 0.714354 -11.557215
vn 0.061664 0.996769 0.051461
v -6.733494 0.711209 -8.220448
vn -0.002945 0.997160 -0.075249
v -0.242331 1.051490 10.709631
vn -0.126354 0.991470 -0.031981
v 10.445279 0.843652 0.782410
vn 0.077974 0.995420 0.055309
v -5.085020 0.188591 -3.761651
vn -0.072739 0.991869 -0.104426
v 6.644726 1.000030 8.181689
vn 0.083074 0.995331 -0.049134
v 11.376244 0.837433 -4.335212
vn -0.255626 -0.965744 0.044662
v -11.993368 0.823196 -2.789050
vn 0.081279 0.996690 0.001405
v -10.055940 0.801367 -2.822245
# 52 vertices, 0 vertices normals

f 8//8 3//3 25//25
f 2//2 25//25 3//3
f 1//1 25//25 2//2
f 25//25 9//9 8//8
f 25//25 10//10 9//9
f 10//10 25//25 1//1
f 1//1 4//4 10//10
f 1//1 5//5 4//4
f 2//2 6//6 5//5
f 2//2 11//11 6//6
f 11//11 2//2 3//3
f 11//11 3//3 12//12
f 3//3 7//7 12//12
f 7//7 3//3 8//8
f 17//17 7//7 8//8
f 8//8 13//13 17//17
f 13//13 8//8 9//9
f 9//9 14//14 13//13
f 9//9 27//27 14//14
f 27//27 9//9 10//10
f 4//4 15//15 10//10
f 4//4 18//18 15//15
f 18//18 4//4 5//5
f 5//5 23//23 18//18
f 23//23 5//5 6//6
f 6//6 24//24 23//23
f 24//24 6//6 11//11
f 11//11 16//16 24//24
f 16//16 11//11 12//12
f 12//12 19//19 16//16
f 19//19 12//12 7//7
f 7//7 17//17 19//19
f 51//51 17//17 13//13
f 13//13 20//20 51//51
f 20//20 13//13 14//14
f 10//10 21//21 27//27
f 15//15 21//21 10//10
f 22//22 15//15 18//18
f 50//50 18//18 23//23
f 19//19 17//17 51//51
f 43//43 23//23 24//24
f 5//5 1//1 2//2
f 20//20 26//26 51//51
f 15//15 22//22 21//21
f 22//22 18//18 50//50
f 24//24 44//44 43//43
f 44//44 24//24 16//16
f 16//16 19//19 44//44
f 32//32 28//28 31//31
f 33//33 28//28 32//32
f 28//28 40//40 34//34
f 34//34 29//29 28//28
f 31//31 30//30 36//36
f 48//48 33//33 39//39
f 29//29 35//35 30//30
f 36//36 30//30 35//35
f 47//47 31//31 36//36
f 33//33 32//32 37//37
f 38//38 37//37 32//32
f 39//39 33//33 37//37
f 48//48 39//39 45//45
f 45//45 40//40 48//48
f 52//52 34//34 40//40
f 34//34 41//41 29//29
f 35//35 41//41 46//46
f 35//35 29//29 41//41
f 36//36 35//35 49//49
f 46//46 49//49 35//35
f 49//49 47//47 36//36
f 47//47 42//42 38//38
f 42//42 37//37 38//38
f 39//39 37//37 43//43
f 43//43 44//44 39//39
f 44//44 45//45 39//39
f 45//45 52//52 40//40
f 41//41 14//14 46//46
f 47//47 49//49 22//22
f 50//50 42//42 47//47
f 42//42 43//43 37//37
f 49//49 21//21 22//22
f 47//47 38//38 31//31
f 38//38 32//32 31//31
f 48//48 40//40 28//28
f 26//26 20//20 41//41
f 20//20 14//14 41//41
f 46//46 14//14 27//27
f 21//21 46//46 27//27
f 49//49 46//46 21//21
f 22//22 50//50 47//47
f 50//50 23//23 42//42
f 43//43 42//42 23//23
f 26//26 52//52 51//51
f 28//28 33//33 48//48
f 31//31 28//28 30//30
f 29//29 30//30 28//28
f 34//34 52//52 26//26
f 26//26 41//41 34//34
f 45//45 44//44 19//19
f 52//52 45//45 51//51
f 19//19 51//51 45//45
# 100 faces, 0 coords texture

# End of File
