####
#
# OBJ File Generated by Meshlab
#
####
# Object cabinet_with_desktop.obj
#
# Vertices: 18
# Faces: 32
#
####
vn -1.570796 -4.712390 1.570796
v -0.377000 0.000000 0.242000
vn -1.570796 -1.570797 1.570799
v -0.380000 0.000000 0.250000
vn -1.570796 -4.712390 -1.570796
v -0.377000 0.000000 -0.242000
vn -1.570796 -1.570798 -1.570798
v -0.380000 0.000000 -0.250000
vn 1.570796 -4.712390 -1.570796
v 0.377000 0.000000 -0.242000
vn 1.570796 -1.570798 -1.570796
v 0.380000 0.000000 -0.250000
vn 1.570796 -4.712390 1.570796
v 0.377000 0.000000 0.242000
vn 1.570796 -1.570798 1.570796
v 0.380000 0.000000 0.250000
vn 1.570796 1.570796 -1.570798
v 0.380000 0.028575 -0.250000
vn 2.839973 3.070682 0.466631
v 0.380000 0.028575 0.205000
vn 1.872415 1.499886 2.037430
v 0.380000 0.014575 0.250000
vn -1.570796 1.570796 -1.570796
v -0.380000 0.028575 -0.250000
vn -2.839973 3.070682 0.466631
v -0.380000 0.028575 0.205000
vn -1.872415 1.499885 2.037427
v -0.380000 0.014575 0.250000
vn 1.570796 -1.570796 1.570796
v 0.377000 -0.690000 0.242000
vn 1.570796 -1.570796 -1.570796
v 0.377000 -0.690000 -0.242000
vn -1.570796 -1.570796 1.570796
v -0.377000 -0.690000 0.242000
vn -1.570796 -1.570796 -1.570796
v -0.377000 -0.690000 -0.242000
# 18 vertices, 0 vertices normals

f 1//1 2//2 3//3
f 3//3 2//2 4//4
f 3//3 4//4 5//5
f 5//5 4//4 6//6
f 5//5 6//6 7//7
f 7//7 6//6 8//8
f 7//7 8//8 1//1
f 1//1 8//8 2//2
f 6//6 9//9 8//8
f 8//8 9//9 10//10
f 8//8 10//10 11//11
f 12//12 9//9 4//4
f 4//4 9//9 6//6
f 12//12 4//4 13//13
f 13//13 4//4 2//2
f 13//13 2//2 14//14
f 14//14 2//2 11//11
f 11//11 2//2 8//8
f 10//10 9//9 13//13
f 13//13 9//9 12//12
f 11//11 10//10 14//14
f 14//14 10//10 13//13
f 15//15 16//16 7//7
f 7//7 16//16 5//5
f 17//17 15//15 1//1
f 1//1 15//15 7//7
f 18//18 17//17 3//3
f 3//3 17//17 1//1
f 16//16 18//18 5//5
f 5//5 18//18 3//3
f 17//17 18//18 15//15
f 15//15 18//18 16//16
# 32 faces, 0 coords texture

# End of File
